<?xml version="1.0" standalone="no"?>
<!DOCTYPE svg PUBLIC "-//W3C//DTD SVG 20010904//EN"
 "http://www.w3.org/TR/2001/REC-SVG-20010904/DTD/svg10.dtd">
<svg version="1.0" xmlns="http://www.w3.org/2000/svg"
 width="1024.000000pt" height="1008.000000pt" viewBox="0 0 1024.000000 1008.000000"
 preserveAspectRatio="xMidYMid meet">
<metadata>
Created by potrace 1.16, written by Peter Selinger 2001-2019
</metadata>
<g transform="translate(0.000000,1008.000000) scale(0.100000,-0.100000)"
fill="#000000" stroke="none">
<path d="M4820 9439 c-937 -67 -1825 -434 -2530 -1047 -1072 -931 -1613 -2293
-1474 -3712 94 -963 519 -1877 1199 -2578 671 -693 1571 -1150 2515 -1276 210
-28 342 -36 590 -36 397 0 690 35 1054 126 1437 359 2603 1448 3062 2864 196
605 257 1274 173 1904 -99 741 -376 1425 -819 2021 -258 347 -620 700 -978
954 -807 570 -1807 850 -2792 780z m697 -285 c1273 -120 2422 -851 3082 -1959
292 -491 467 -999 543 -1580 19 -144 22 -219 23 -485 0 -320 -6 -411 -45 -660
-109 -686 -401 -1342 -846 -1900 -142 -177 -453 -487 -622 -620 -552 -434
-1138 -702 -1802 -824 -404 -74 -868 -85 -1275 -30 -1627 220 -2961 1403
-3380 2999 -171 650 -172 1357 -4 2029 241 960 849 1816 1684 2373 780 520
1693 747 2642 657z"/>
<path d="M4945 8754 c-22 -2 -96 -9 -165 -15 -432 -37 -906 -172 -1304 -371
-376 -188 -677 -406 -982 -712 -319 -319 -540 -628 -730 -1019 -83 -172 -155
-350 -144 -360 4 -5 20 -7 35 -5 25 3 32 15 80 128 111 266 188 410 340 640
924 1391 2649 1985 4229 1459 533 -178 1014 -477 1422 -884 99 -99 227 -238
283 -310 210 -265 390 -567 511 -855 34 -80 65 -152 69 -160 10 -19 71 -26 71
-9 0 25 -95 249 -166 391 -368 736 -945 1317 -1674 1685 -397 201 -811 324
-1265 378 -125 15 -527 27 -610 19z"/>
<path d="M4545 8320 c-156 -32 -273 -126 -339 -270 -28 -63 -56 -188 -56 -253
l0 -44 -72 -7 c-182 -17 -321 -142 -359 -324 -15 -75 -6 -201 20 -275 57 -161
201 -297 369 -347 l42 -13 1 -131 c2 -163 7 -190 37 -194 13 -2 67 8 120 22
239 61 398 80 677 80 312 -1 521 -27 893 -111 138 -31 165 -34 173 -22 5 8 9
67 9 133 l0 118 28 -6 c15 -3 61 -11 103 -18 144 -22 271 20 338 112 44 61 54
101 49 194 -6 99 -45 184 -117 255 l-47 46 12 40 c15 49 17 213 4 275 -48 217
-217 408 -408 459 -56 15 -180 15 -230 0 -40 -12 -41 -11 -74 27 -65 76 -114
115 -194 155 -68 34 -94 42 -161 46 -90 6 -184 -16 -258 -61 l-39 -24 -44 30
c-135 93 -332 137 -477 108z m237 -90 c56 -17 142 -66 201 -114 18 -14 18 -16
-2 -54 -24 -47 -58 -174 -66 -246 l-6 -51 25 70 c53 145 167 271 286 316 81
31 195 24 270 -16 53 -29 170 -137 170 -157 0 -6 -29 -42 -65 -80 -36 -39 -63
-73 -61 -75 3 -3 25 9 51 27 86 59 172 93 249 98 148 9 263 -33 361 -132 119
-121 179 -306 146 -449 -5 -21 -12 -41 -15 -44 -3 -3 -25 2 -49 11 -71 27 -73
18 -6 -33 150 -114 229 -233 229 -346 0 -84 -28 -132 -99 -167 -47 -24 -66
-28 -135 -27 -45 0 -107 8 -140 17 -53 16 -59 20 -71 55 -7 21 -21 48 -32 59
-44 50 -148 95 -273 118 -86 17 -100 25 -100 58 0 49 63 124 154 183 55 36 57
39 30 39 -46 -1 -107 -33 -196 -106 -45 -37 -110 -80 -143 -95 -119 -55 -311
-57 -430 -4 -114 50 -201 165 -225 296 -22 119 -22 119 -31 74 -4 -22 -8 -99
-7 -171 0 -147 -10 -181 -65 -215 -66 -40 -202 -59 -277 -39 -85 23 -146 116
-165 250 -7 46 -10 51 -16 30 -13 -45 -9 -165 7 -225 29 -108 32 -99 -33 -136
-86 -50 -91 -51 -152 -33 -236 67 -359 322 -270 558 42 114 136 176 263 176
71 0 75 -2 106 -55 24 -42 114 -140 141 -156 10 -5 -2 20 -26 56 -108 160
-123 334 -44 501 94 200 307 297 511 234z m663 -1255 c155 -21 338 -58 395
-81 63 -24 110 -61 126 -100 13 -31 20 -154 9 -154 -3 0 -45 9 -93 19 -92 20
-210 36 -202 28 3 -3 55 -22 115 -43 61 -20 129 -45 153 -55 41 -18 42 -20 42
-64 0 -25 -3 -45 -8 -45 -4 0 -39 9 -77 20 -106 31 -394 87 -540 107 -93 12
-205 17 -390 17 -280 0 -446 -17 -652 -68 -63 -15 -96 -19 -103 -12 -11 11
-13 81 -3 139 5 35 11 41 62 64 31 13 108 43 171 64 78 27 101 38 70 34 -50
-7 -264 -53 -286 -62 -26 -10 -15 35 16 71 19 21 50 41 78 50 74 25 286 66
417 81 154 18 532 13 700 -10z"/>
<path d="M2865 6466 c-205 -67 -443 -216 -491 -308 -14 -27 -11 -35 103 -259
176 -344 187 -354 423 -350 l145 2 83 -159 c45 -88 82 -163 82 -169 0 -5 -17
-19 -37 -30 -109 -62 -175 -151 -176 -236 0 -29 -9 -79 -19 -112 -30 -92 -14
-159 54 -227 10 -10 18 -26 18 -36 0 -29 56 -109 94 -134 20 -13 36 -29 36
-36 0 -7 20 -32 44 -56 46 -46 71 -56 228 -92 l76 -18 54 27 c36 18 54 23 57
15 2 -7 15 -23 28 -36 28 -28 66 -25 113 8 43 30 45 51 12 117 l-29 58 28 39
c44 59 54 104 35 149 -8 20 -26 42 -39 48 -23 10 -23 13 -19 123 2 62 -1 152
-7 200 -11 80 -10 89 8 114 75 106 24 268 -95 301 -65 18 -156 -22 -189 -83
-17 -32 -25 -36 -94 -51 -42 -10 -80 -18 -84 -19 -9 -1 -176 312 -177 331 0 6
30 51 68 100 87 113 98 131 111 180 18 67 -3 131 -117 358 -138 276 -130 265
-200 265 -31 -1 -88 -11 -127 -24z m163 -133 c36 -51 193 -375 190 -391 -2
-10 -12 -17 -23 -17 -29 0 -232 399 -215 420 17 21 26 19 48 -12z m-26 -238
c54 -104 97 -199 95 -210 -1 -13 -9 -20 -22 -20 -16 0 -41 40 -121 200 -56
110 -99 205 -97 213 3 7 15 12 27 10 16 -2 43 -45 118 -193z m-121 -60 c54
-104 98 -199 97 -210 -2 -12 -11 -20 -23 -20 -16 0 -41 40 -121 200 -56 110
-99 205 -97 213 3 7 14 12 25 10 15 -2 47 -54 119 -193z m-120 -62 c54 -105
99 -201 99 -212 0 -15 -6 -21 -22 -21 -20 0 -38 31 -125 200 -101 196 -113
235 -71 228 14 -2 47 -57 119 -195z m-122 -58 c56 -108 101 -204 101 -215 0
-14 -7 -20 -22 -20 -20 0 -39 31 -125 199 -101 196 -112 231 -73 231 14 0 45
-51 119 -195z m1077 -590 c39 -42 54 -108 34 -156 -13 -31 -33 -45 -83 -60
-40 -11 -104 18 -129 58 -14 22 -18 24 -18 10 0 -51 56 -101 127 -113 35 -5
43 -12 57 -43 18 -40 35 -114 36 -149 0 -21 -1 -22 -24 -7 -18 12 -25 28 -29
68 -11 90 -59 130 -153 129 -69 0 -154 -25 -229 -67 -54 -30 -130 -95 -111
-95 4 0 39 18 79 40 174 95 294 110 347 43 22 -28 27 -92 8 -97 -7 -2 -43 -10
-81 -19 -37 -9 -91 -28 -120 -42 -59 -27 -171 -104 -164 -112 3 -2 45 16 93
40 223 111 349 120 369 26 12 -53 -2 -87 -43 -100 -96 -31 -303 -142 -290
-155 2 -2 44 16 93 41 103 49 170 73 231 82 38 5 44 3 59 -21 15 -23 16 -33 6
-66 -14 -47 -60 -87 -158 -138 -57 -29 -68 -38 -52 -42 l21 -5 -23 -28 c-20
-26 -27 -28 -68 -24 -183 19 -204 27 -241 105 -14 28 -31 52 -37 52 -26 0 -92
72 -109 118 -9 26 -28 55 -41 66 -57 44 -66 106 -28 182 21 41 23 54 15 86
-23 83 47 166 208 246 84 41 100 46 162 46 68 0 69 1 76 29 3 15 23 46 43 68
34 35 43 39 86 39 42 0 52 -4 81 -35z"/>
<path d="M7348 6409 c-20 -8 -53 -58 -146 -222 -149 -264 -141 -247 -152 -306
-13 -71 4 -120 89 -243 39 -57 71 -109 71 -116 0 -12 -127 -241 -152 -274 -12
-17 -17 -17 -85 7 -40 13 -94 27 -120 31 -41 6 -53 13 -78 47 -54 73 -111 98
-189 83 -128 -24 -182 -221 -90 -326 10 -12 11 -31 2 -90 -5 -41 -8 -133 -6
-203 l5 -128 -34 -34 c-28 -28 -33 -40 -33 -82 0 -51 12 -75 64 -131 l31 -33
-23 -40 c-29 -50 -24 -79 18 -109 42 -30 96 -31 115 -2 l16 21 32 -19 c39 -24
80 -25 172 -4 123 28 157 44 208 98 26 28 69 74 96 101 49 50 81 101 81 129 0
8 15 33 34 55 19 23 40 57 46 77 15 43 8 120 -14 163 -9 17 -16 55 -16 86 0
83 -46 159 -134 221 l-29 21 83 146 c95 167 71 153 232 137 157 -15 224 8 290
99 63 88 258 443 258 471 0 139 -496 425 -642 369z m-654 -1064 c14 -9 37 -40
51 -69 l26 -52 57 4 c119 8 335 -108 388 -209 16 -31 18 -87 5 -108 -6 -8 0
-28 15 -55 47 -82 40 -156 -19 -203 -13 -10 -32 -42 -41 -70 -18 -53 -73 -114
-114 -127 -12 -4 -23 -19 -27 -36 -8 -37 -39 -76 -75 -95 -24 -12 -84 -26
-185 -42 -50 -8 -117 59 -68 69 9 2 -20 21 -68 45 -94 48 -105 56 -137 97 -24
32 -30 94 -10 114 35 35 199 -10 383 -106 6 -3 2 3 -7 14 -24 27 -157 96 -249
129 -76 27 -77 27 -82 67 -20 146 111 156 381 29 l107 -51 -40 36 c-69 63
-263 144 -343 144 -23 0 -24 3 -19 46 14 129 142 137 371 23 80 -40 96 -45 84
-28 -18 28 -125 93 -197 120 -80 30 -186 36 -230 12 -53 -28 -75 -64 -74 -123
1 -42 -3 -52 -24 -65 -14 -9 -27 -14 -30 -11 -10 10 15 135 34 174 15 32 24
38 59 42 69 10 115 50 129 115 l7 30 -21 -33 c-42 -65 -111 -87 -176 -57 -41
20 -60 56 -58 112 4 112 109 175 197 118z"/>
<path d="M4350 6369 c-36 -5 -84 -11 -107 -14 l-43 -6 0 -60 c0 -33 4 -68 9
-77 5 -9 18 -79 30 -155 27 -178 56 -233 141 -277 87 -44 269 -71 347 -50 106
27 153 51 182 94 56 82 85 142 107 230 13 49 29 95 35 102 17 20 83 18 101 -3
8 -10 30 -63 48 -118 39 -121 47 -137 100 -203 59 -76 118 -102 245 -109 163
-9 304 27 367 94 43 45 70 134 83 273 4 41 13 90 21 109 8 18 14 57 14 86 l0
53 -67 11 c-165 26 -277 33 -391 25 -116 -9 -117 -9 -52 -15 39 -4 19 -5 -48
-2 -87 3 -135 -1 -210 -16 -138 -28 -217 -33 -260 -16 -19 8 -49 15 -66 15
-17 0 -66 7 -109 15 -93 18 -87 17 -87 5 0 -5 10 -10 22 -10 33 0 240 -41 268
-53 14 -6 28 -10 33 -9 4 1 7 -2 7 -8 0 -12 -12 -13 -26 -2 -5 4 1 -3 14 -16
14 -13 23 -24 21 -25 -2 -1 -15 -11 -28 -22 -15 -12 -21 -14 -16 -5 8 13 7 13
-8 1 -11 -8 -15 -21 -12 -32 4 -11 2 -19 -4 -19 -6 0 -12 8 -12 18 -2 28 -4
36 -18 63 -16 33 -79 69 -119 69 -17 0 -33 4 -36 9 -10 16 -145 33 -265 34
-139 1 -252 -17 -276 -43 -9 -10 -23 -16 -31 -13 -8 3 -20 1 -27 -5 -9 -8 -13
-3 -14 18 -2 26 0 28 55 35 31 4 66 9 77 12 11 2 85 8 165 12 l145 8 -120 0
c-66 0 -149 -3 -185 -8z m230 -49 c-47 -3 -78 -8 -70 -9 9 -2 5 -6 -10 -11
-36 -12 -72 -12 -65 0 12 19 -60 -2 -78 -23 -17 -20 -17 -21 20 -41 37 -21 39
-21 57 -4 23 21 76 24 76 6 0 -7 -13 -22 -28 -32 l-27 -20 19 22 c11 12 17 22
15 23 -2 0 -12 2 -22 4 -10 2 -21 -3 -24 -11 -7 -18 16 -164 28 -180 5 -6 6
-14 2 -18 -4 -4 -2 -10 4 -14 7 -5 9 -13 4 -21 -7 -10 -14 -10 -41 4 -17 9
-34 14 -37 11 -3 -2 16 -14 41 -25 25 -12 66 -30 89 -40 24 -11 83 -30 130
-42 74 -18 90 -26 112 -55 14 -18 21 -35 16 -38 -5 -3 -44 -11 -86 -17 -65
-10 -94 -9 -184 6 -58 10 -116 24 -128 31 -41 26 -81 130 -88 229 -4 53 4 70
38 74 9 1 9 3 2 23 -4 10 -12 15 -17 12 -13 -8 1 39 14 47 6 4 6 9 -1 13 -6 4
-11 2 -11 -3 0 -6 -4 -11 -10 -11 -5 0 -8 6 -6 13 3 6 7 24 10 39 11 49 74 66
236 65 l105 -1 -85 -6z m914 -155 c-5 -12 2 -15 30 -15 20 0 36 5 36 10 0 6
14 10 30 10 20 0 30 -5 30 -15 0 -11 -11 -15 -37 -15 l-36 0 44 -30 c28 -19
58 -30 84 -31 38 -2 38 -2 7 -6 l-33 -4 23 -20 23 -20 -25 6 c-25 6 -25 6 -5
-12 11 -10 18 -17 16 -16 -2 1 -11 -2 -21 -7 -10 -5 -41 -7 -69 -3 -46 5 -51
8 -51 31 0 17 -17 42 -55 79 -30 30 -55 58 -55 64 0 5 16 9 35 9 26 0 33 -3
29 -15z m342 -19 c-4 -16 -2 -24 7 -23 6 0 27 -1 46 -1 l34 -2 -6 -83 c-3 -46
-15 -108 -26 -138 -31 -82 -69 -110 -151 -114 -19 -1 -77 -5 -128 -10 -66 -5
-105 -4 -137 5 -47 13 -51 19 -35 51 9 16 22 19 91 19 107 0 218 19 249 42 15
12 33 17 46 14 12 -3 32 -2 44 2 20 7 20 9 6 21 -11 9 -16 10 -16 2 0 -8 -5
-9 -19 -1 -11 5 -30 10 -42 10 -18 0 -19 -2 -9 -15 10 -12 10 -15 -3 -15 -9 0
-20 -7 -24 -15 -6 -10 -40 -16 -123 -23 -63 -4 -116 -5 -118 -1 -2 4 -12 5
-23 2 -14 -4 -18 -2 -13 10 5 14 24 16 111 16 72 -1 108 3 113 11 4 7 16 9 29
5 28 -8 27 6 -1 24 -22 14 -22 14 -3 22 17 6 17 8 3 8 -10 1 -18 6 -18 12 0 7
8 7 23 -3 20 -12 24 -12 45 8 16 16 19 23 10 26 -10 4 -10 9 2 23 13 17 13 18
0 10 -12 -7 -13 -6 -4 6 6 8 14 34 18 58 4 24 9 48 12 53 10 16 16 8 10 -16z"/>
<path d="M1944 5523 c-127 -235 -312 -526 -414 -653 -44 -54 -62 -69 -109 -86
-128 -47 -180 -88 -160 -126 6 -12 21 -18 42 -18 34 0 95 44 162 117 34 36 95
52 284 74 158 18 614 6 755 -20 59 -10 113 -24 119 -30 13 -13 57 -15 57 -2 0
5 -30 16 -67 25 -274 64 -713 74 -1010 22 -43 -7 -79 -12 -81 -11 -2 2 17 29
43 60 107 132 337 500 439 703 21 41 50 92 67 114 32 44 37 68 15 68 -8 0 -70
-104 -142 -237z"/>
<path d="M8168 5495 c-55 -20 -126 -71 -190 -137 l-56 -59 33 80 c18 43 31 82
28 85 -10 10 -43 -15 -43 -33 0 -25 -79 -202 -145 -326 -45 -84 -145 -311
-145 -329 0 -3 6 -6 13 -6 8 0 41 60 77 138 124 271 158 329 252 427 64 67
104 100 152 125 154 78 246 37 246 -109 0 -123 -51 -248 -155 -378 -146 -182
-323 -262 -555 -250 -110 6 -218 24 -234 38 -14 12 -66 11 -66 -1 0 -5 3 -10
8 -10 4 0 50 -9 102 -20 120 -25 327 -28 415 -5 158 40 307 155 413 317 109
168 134 364 56 442 -24 23 -34 26 -98 25 -39 0 -88 -7 -108 -14z"/>
<path d="M4580 5345 c-7 -8 -21 -15 -32 -15 -19 0 -19 -5 -13 -62 7 -64 20
-92 36 -82 5 3 9 -5 10 -18 0 -21 1 -21 8 -3 6 15 9 9 14 -25 3 -25 2 -46 -4
-48 -12 -5 -12 -32 0 -32 5 0 12 6 14 13 4 9 6 9 6 -1 1 -7 6 -10 11 -7 6 3
10 36 10 73 l0 68 38 -1 c20 0 44 -5 52 -10 8 -5 23 -8 33 -7 9 2 42 -4 73
-13 30 -9 58 -14 62 -12 4 2 39 0 77 -4 142 -17 203 -19 251 -9 27 6 78 13
114 16 36 3 85 11 110 19 51 16 113 14 135 -5 19 -16 19 -41 1 -85 -10 -24
-12 -44 -6 -65 5 -16 6 -30 2 -30 -4 0 -15 -14 -25 -32 -12 -22 -15 -34 -7
-42 7 -7 10 -6 10 4 0 10 3 11 11 3 11 -11 4 -73 -9 -73 -3 0 -14 8 -25 18
-20 16 -20 16 -14 -2 6 -14 4 -17 -9 -12 -12 5 -14 1 -9 -17 4 -13 3 -17 -2
-10 -11 15 -56 5 -46 -10 4 -6 0 -8 -10 -4 -13 5 -17 1 -17 -15 0 -21 0 -21
-15 -2 -14 18 -14 18 -15 0 0 -14 -3 -16 -14 -7 -10 8 -16 8 -25 -2 -6 -8 -7
-18 -3 -22 4 -5 -1 -5 -10 -2 -10 4 -18 3 -18 -2 0 -4 -7 -8 -15 -8 -8 0 -15
6 -15 14 0 15 -16 18 -25 4 -3 -6 -24 -9 -46 -8 -42 1 -58 -11 -59 -48 -1 -19
-1 -19 -11 -2 -10 18 -12 18 -30 1 -18 -16 -19 -16 -13 -1 8 23 -24 23 -41 0
-11 -15 -13 -15 -25 7 l-12 23 -14 -24 c-7 -13 -14 -35 -14 -49 0 -19 -3 -22
-9 -11 -8 13 -12 13 -27 0 -9 -8 -23 -29 -31 -48 -8 -19 -21 -40 -29 -48 -8
-8 -14 -20 -14 -26 0 -7 12 1 25 16 14 15 25 24 25 20 0 -4 7 1 15 11 12 16
15 16 15 4 0 -8 -9 -23 -20 -33 -11 -10 -17 -22 -13 -28 3 -5 1 -7 -4 -4 -6 4
-14 0 -17 -9 -9 -24 -7 -31 4 -14 14 21 1 -45 -17 -90 -11 -27 -16 -32 -23
-20 -8 12 -10 13 -10 1 0 -8 -3 -11 -7 -8 -3 4 2 16 12 27 11 12 20 38 21 63
2 41 2 42 -15 19 -9 -13 -31 -41 -49 -64 l-34 -42 6 72 c3 40 11 82 17 93 15
30 79 112 79 103 0 -4 8 0 18 9 10 10 22 14 27 10 4 -5 5 -2 1 5 -4 6 -2 12 3
12 6 0 11 5 11 11 0 6 -7 9 -15 5 -9 -3 -15 0 -15 8 0 8 6 17 13 19 7 3 5 6
-5 6 -10 1 -18 -5 -18 -11 -1 -7 -12 -26 -27 -43 -18 -21 -21 -23 -9 -5 21 33
38 72 32 77 -8 8 -51 -19 -74 -48 -13 -16 -29 -26 -34 -22 -8 4 -9 0 -5 -11 4
-10 7 -22 7 -27 0 -6 5 -7 10 -4 15 9 -51 -87 -70 -102 -29 -24 -29 -12 0 30
57 82 47 131 -15 67 -19 -20 -30 -45 -36 -80 -8 -53 -3 -84 12 -74 5 3 6 -8 3
-24 -3 -16 0 -40 6 -53 12 -21 14 -21 25 -6 11 15 13 12 19 -23 3 -22 10 -40
15 -40 5 0 12 -11 15 -25 4 -14 11 -23 16 -20 6 4 10 -8 10 -28 0 -24 8 -40
26 -56 14 -12 28 -20 32 -17 3 3 11 1 19 -6 11 -9 13 -5 11 21 -1 17 -6 31
-11 31 -5 0 -7 -7 -3 -15 8 -22 -2 -18 -15 6 -9 17 -8 20 2 14 9 -6 10 -3 5
10 -5 14 -3 15 6 7 10 -8 13 4 13 60 0 75 11 101 56 137 22 17 44 67 41 92 -1
3 5 6 13 6 11 0 10 -5 -2 -24 -9 -14 -11 -23 -5 -23 14 0 30 29 47 84 l13 41
0 -35 c0 -45 -11 -85 -23 -85 -16 0 -35 -15 -35 -27 0 -6 7 -5 18 3 14 11 13
10 -2 -9 -17 -20 -18 -22 -2 -22 9 0 37 11 62 25 24 13 44 21 44 17 0 -4 10 4
21 18 18 22 18 20 -3 -20 -15 -30 -31 -46 -46 -48 -12 -2 -22 -7 -22 -12 0 -4
-20 -20 -45 -34 -50 -30 -61 -56 -51 -114 10 -52 11 -54 24 -79 7 -12 12 -29
12 -38 0 -9 4 -14 9 -11 4 3 16 -3 25 -13 12 -13 14 -21 7 -26 -6 -3 -15 2
-19 12 -4 11 -19 19 -36 20 -28 2 -29 2 -9 -16 18 -17 48 -31 66 -31 8 0 31
-17 55 -42 23 -25 39 -22 56 10 8 15 15 21 16 15 0 -23 18 -14 28 15 17 43 70
100 80 85 7 -10 12 -10 25 0 13 9 16 20 11 44 -4 18 -10 30 -15 27 -5 -3 -9
-1 -9 4 0 5 9 12 19 15 12 3 18 0 15 -7 -2 -6 4 -16 14 -23 17 -10 18 -8 17
22 0 26 2 31 12 24 17 -15 36 -1 30 22 -3 11 -1 19 4 19 5 0 9 -6 9 -12 0 -9
4 -8 10 2 5 8 7 23 4 33 -6 19 28 61 40 50 3 -4 6 1 6 10 0 10 9 26 20 37 11
11 20 27 20 35 0 8 8 28 19 46 10 17 17 40 14 52 -4 18 -3 19 7 7 9 -12 10 -4
6 35 -4 34 -3 44 3 30 l10 -20 1 20 c1 11 3 48 5 81 2 34 8 71 14 82 6 11 11
27 11 34 -1 7 -9 -3 -20 -22 -16 -29 -19 -31 -20 -13 0 12 4 24 9 27 5 3 12
32 16 63 4 32 13 66 21 77 8 11 14 27 13 36 0 10 -3 9 -9 -5 -5 -11 -9 -14 -9
-7 -1 7 15 51 34 99 34 86 48 183 25 183 -5 0 -10 6 -10 13 0 7 -11 14 -25 15
-14 1 -25 -4 -25 -11 0 -8 -3 -9 -8 -1 -8 12 -3 12 -130 14 -51 1 -98 -3 -105
-8 -7 -5 -31 -9 -55 -7 -38 2 -42 0 -36 -17 5 -18 4 -18 -30 1 -25 14 -36 17
-40 8 -3 -8 -7 -9 -13 -2 -11 14 -43 15 -44 1 0 -6 -5 -2 -10 9 -7 17 -8 16
-7 -10 2 -48 -1 -65 -12 -65 -7 0 -7 6 -2 18 12 24 0 65 -21 68 -9 1 -17 -2
-17 -7 0 -6 -4 -7 -10 -4 -5 3 -10 2 -10 -3 0 -5 -16 -8 -35 -7 -19 0 -35 -3
-35 -8 0 -4 -5 -5 -12 -1 -23 14 -119 12 -125 -3 -3 -7 -9 -13 -14 -13 -6 0
-5 8 1 19 5 11 10 21 10 23 0 2 -36 3 -81 3 -48 0 -83 5 -87 12 -7 11 -32 5
-94 -21 -13 -6 -15 -3 -11 13 6 25 0 27 -17 6z"/>
<path d="M5061 5049 c-10 -18 -15 -19 -22 -8 -7 11 -11 10 -23 -6 -20 -26 -20
-35 -1 -35 8 0 15 -8 15 -17 1 -16 2 -16 15 1 9 12 15 15 15 7 0 -7 9 -3 20
10 l19 24 1 -33 c0 -20 -4 -31 -10 -27 -15 9 -12 -1 4 -14 12 -10 18 -7 31 16
9 15 13 19 10 8 -17 -48 -17 -55 -3 -55 8 0 19 5 25 11 8 8 13 8 17 0 13 -20
39 -13 33 9 -4 14 0 20 12 20 24 0 43 44 31 72 -5 13 -9 19 -10 13 0 -5 -4 -4
-9 4 -8 12 -12 12 -24 2 -12 -9 -16 -9 -20 1 -4 8 -6 7 -6 -4 -1 -23 -24 -19
-34 6 -6 15 -10 17 -19 8 -7 -7 -21 -12 -32 -12 -17 0 -18 2 -6 10 13 9 13 10
0 10 -8 0 -21 -10 -29 -21z"/>
<path d="M1617 3923 c201 -558 571 -1103 1017 -1501 488 -434 1040 -722 1661
-867 705 -165 1479 -114 2160 142 144 54 483 219 615 299 585 355 1076 878
1394 1486 63 121 179 382 192 432 6 24 4 26 -29 26 l-35 0 -42 -104 c-97 -242
-254 -531 -403 -741 -618 -870 -1534 -1415 -2597 -1545 -169 -21 -561 -24
-750 -6 -479 46 -914 173 -1334 389 -361 186 -647 395 -936 686 -349 351 -641
796 -811 1233 l-34 88 -37 0 c-31 0 -36 -3 -31 -17z"/>
<path d="M3120 3875 c0 -13 237 -15 2070 -15 1833 0 2070 2 2070 15 0 13 -237
15 -2070 15 -1833 0 -2070 -2 -2070 -15z"/>
<path d="M2970 3775 l0 -25 2226 0 2225 0 -3 23 -3 22 -2222 3 -2223 2 0 -25z"/>
<path d="M3100 3460 c0 -18 7 -20 70 -20 39 0 70 -3 70 -7 0 -5 -32 -55 -70
-113 -38 -58 -70 -111 -70 -117 0 -10 29 -13 110 -13 103 0 110 1 110 20 0 18
-7 20 -71 20 -57 0 -70 3 -66 14 3 8 35 57 71 110 36 52 66 102 66 111 0 13
-18 15 -110 15 -103 0 -110 -1 -110 -20z"/>
<path d="M3492 3464 c-36 -25 -55 -73 -55 -137 1 -62 17 -96 58 -123 33 -22
97 -21 131 0 72 48 72 212 1 259 -33 21 -105 22 -135 1z m108 -46 c16 -17 20
-35 20 -83 0 -73 -18 -105 -59 -105 -36 0 -58 26 -67 77 -15 98 51 169 106
111z"/>
<path d="M3810 3335 l0 -145 30 0 c30 0 30 1 30 55 0 52 1 55 25 55 21 0 30
-10 52 -55 23 -47 31 -55 55 -55 15 0 28 2 28 5 0 2 -12 29 -27 60 l-27 55 21
22 c21 23 26 42 24 86 -2 38 -55 62 -138 62 l-73 0 0 -145z"/>
<path d="M4160 3335 l0 -145 30 0 30 0 0 145 0 145 -30 0 -30 0 0 -145z"/>
<path d="M4550 3335 l0 -145 55 0 c31 0 71 6 90 14 54 23 85 103 66 174 -20
74 -63 102 -157 102 l-54 0 0 -145z m129 86 c40 -40 39 -147 -2 -176 -12 -8
-34 -15 -49 -15 l-28 0 0 105 0 105 30 0 c17 0 39 -9 49 -19z"/>
<path d="M4900 3335 l0 -145 95 0 c88 0 95 2 95 20 0 17 -8 19 -67 22 l-68 3
0 40 0 40 58 3 c49 3 57 6 57 22 0 18 -7 20 -60 20 l-60 0 0 40 0 40 70 0 c63
0 70 2 70 20 0 19 -7 20 -95 20 l-95 0 0 -145z"/>
<path d="M5387 3473 c-4 -3 -7 -12 -7 -20 0 -10 18 -13 70 -13 39 0 70 -4 70
-9 0 -5 -31 -56 -70 -113 -38 -57 -70 -109 -70 -115 0 -10 29 -13 110 -13 103
0 110 1 110 20 0 18 -7 20 -70 20 -38 0 -70 2 -70 5 0 3 32 52 70 109 39 57
70 111 70 120 0 14 -16 16 -103 16 -57 0 -107 -3 -110 -7z"/>
<path d="M5730 3335 l0 -145 30 0 30 0 0 145 0 145 -30 0 -30 0 0 -145z"/>
<path d="M6110 3336 l0 -146 30 0 29 0 3 95 3 95 58 -95 c52 -85 62 -95 88
-95 l29 0 0 145 0 145 -30 0 -30 0 0 -97 0 -98 -58 95 c-52 85 -62 95 -90 98
l-32 3 0 -145z"/>
<path d="M6490 3335 l0 -145 30 0 c30 0 30 1 30 55 0 52 2 55 24 55 20 0 30
-11 51 -55 23 -48 29 -55 55 -55 17 0 30 2 30 5 0 3 -13 31 -29 63 l-29 57 24
18 c24 18 32 64 18 102 -11 28 -60 45 -134 45 l-70 0 0 -145z"/>
<path d="M7082 3382 c-34 -54 -62 -104 -62 -110 0 -7 25 -12 63 -14 62 -3 62
-3 65 -35 3 -27 7 -33 28 -33 20 0 24 5 24 30 0 18 6 33 15 36 8 4 15 15 15
25 0 10 -7 19 -15 19 -12 0 -15 17 -15 90 l0 90 -28 0 c-26 0 -36 -11 -90 -98z"/>
<path d="M3620 2875 l23 -25 1465 0 1465 0 33 21 c19 11 34 23 34 25 0 2 -685
4 -1522 4 l-1521 0 23 -25z"/>
<path d="M3726 2770 c14 -14 2774 -14 2788 0 7 7 -455 10 -1394 10 -949 0
-1401 -3 -1394 -10z"/>
<path d="M5119 2432 l-35 -107 -118 -5 -118 -5 95 -68 95 -69 -34 -101 c-19
-56 -33 -105 -31 -110 1 -5 23 7 47 25 25 19 66 49 91 67 l47 33 88 -66 c49
-35 90 -61 92 -56 2 4 -11 50 -27 102 -17 51 -31 98 -31 103 1 6 42 39 93 75
l92 65 -119 5 -119 5 -32 103 c-18 57 -35 105 -37 107 -2 2 -20 -44 -39 -103z"/>
</g>
</svg>
